<?xml version="1.0" encoding="utf-8"?>
<?xml-stylesheet type="text/xsl" href="rss1.xsl"?>
<rss version="2.0" xmlns:atom="http://www.w3.org/2005/Atom" xmlns:content="http://purl.org/rss/1.0/modules/content/" xmlns:dc="http://purl.org/dc/elements/1.1/" xmlns:media="http://search.yahoo.com/mrss/">
<channel>
 <title>Getty</title>
 <link>http://www.gettyimg.com/</link>
 <atom:link href="http://www.gettyimg.com/" rel="self" type="application/rss+xml" />

 
                <item>
                <title><![CDATA[【Requests】[REQ AUD] - Kolohe Kai Albums]]></title>
                <link><![CDATA[https://sharemania.us/threads/kolohe-kai-albums.243417/]]></link>
                <description><![CDATA[<article>
<blockquote class="messageText SelectQuoteContainer ugc baseHtml">
Hello! Can anyone please upload this? Thank you so much!!<br>
<br>
This Is The Life<br>
<a href="https://www.qobuz.com/us-en/album/this-is-the-life-kolohe-kai/rlmfcjvf0s0gb" target="_blank" class="externalLink" rel="nofollow">https://www.qobuz.com/us-en/album/this-is-the-life-kolohe-kai/rlmfcjvf0s0gb</a><br>
<br>
Love Town<br>
<a href="https://www.qobuz.com/us-en/album/love-town-kolohe-kai/ynipwh8r7o6kc" target="_blank" class="externalLink" rel="nofollow">https://www.qobuz.com/us-en/album/love-town-kolohe-kai/ynipwh8r7o6kc</a><br>
<br>
Best Of Kolohe Kai Acoustic<br>
<a href="https://www.qobuz.com/us-en/album/best-of-kolohe-kai-acoustic-kolohe-kai/mfe2kj0kg08uc" target="_blank" class="externalLink" rel="nofollow">https://www.qobuz.com/us-en/album/best-of-kolohe-kai-acoustic-kolohe-kai/mfe2kj0kg08uc</a>
<div class="messageTextEndMarker">&nbsp;</div>
</blockquote>
</article>]]></description>
                <author><![CDATA[anonymus]]></author>
                </item>

                
                <item>
                <title><![CDATA[【Albums (lossless)】FLAC - Carly Rae Jepsen - Tug of War (Japanese Bonus Tracks) | CD Rip | WEB FLAC | .FLAC 16bits ／ 44.1kHz]]></title>
                <link><![CDATA[https://sharemania.us/threads/carly-rae-jepsen-tug-of-war-japanese-bonus-tracks-cd-rip-web-flac-flac-16bits-%EF%BC%8F-44-1khz.243415/]]></link>
                <description><![CDATA[<article>
<blockquote class="messageText SelectQuoteContainer ugc baseHtml">
<div style="text-align: center"><img src="https://a5.mzstatic.com/us/r1000/0/Music124/v4/fd/3d/65/fd3d6532-4c76-120a-2d2c-975c5d536810/mzi.lhmubcug.jpg" class="bbCodeImage LbImage" alt="[​IMG]" data-url="https://a5.mzstatic.com/us/r1000/0/Music124/v4/fd/3d/65/fd3d6532-4c76-120a-2d2c-975c5d536810/mzi.lhmubcug.jpg" style=""> <br>
<br>
<span style="font-family: 'Book Antiqua'"><span style="font-size: 15px"><span style="color: #000000">
<div class="bbCodeBlock bbCodeVfcHH HiddenContent">
<div class="attribution type">Hidden Content:</div>
<blockquote>You must reply before you can see the hidden data contained here.</blockquote>
</div></span></span></span>​</div>
<div class="messageTextEndMarker">&nbsp;</div>
</blockquote>
</article>]]></description>
                <author><![CDATA[Nuric]]></author>
                </item>

                
                <item>
                <title><![CDATA[【Cinema Center】WEB-DL - Black and White 1999 1080p AMZN WEB-DL DDP2.0 H.264-SiGLA]]></title>
                <link><![CDATA[https://sharemania.us/threads/black-and-white-1999-1080p-amzn-web-dl-ddp2-0-h-264-sigla.243416/]]></link>
                <description><![CDATA[<article>
<blockquote class="messageText SelectQuoteContainer ugc baseHtml">
<div style="text-align: center"><img src="https://i.ibb.co/M1nLB9L/images-q-tbn-ANd9-Gc-RCt-S5-Jc-Ijer180bv-PTld-AV2f-Em4hu-Lz-Pdxdw3-D1-Tg1t7-8-Fso.jpg" class="bbCodeImage LbImage" alt="[​IMG]" data-url="https://i.ibb.co/M1nLB9L/images-q-tbn-ANd9-Gc-RCt-S5-Jc-Ijer180bv-PTld-AV2f-Em4hu-Lz-Pdxdw3-D1-Tg1t7-8-Fso.jpg" style=""><br>
<br>
<a href="https://ibb.co/6FSMyyb" target="_blank" class="externalLink" rel="nofollow"><img src="https://i.ibb.co/6FSMyyb/Black-and-White-1999-1080p-AMZN-WEB-DL-DDP2-0-H-264-Si-GLA-mkv-snapshot-01-27-05-910.png" class="bbCodeImage LbImage" alt="[​IMG]" data-url="https://i.ibb.co/6FSMyyb/Black-and-White-1999-1080p-AMZN-WEB-DL-DDP2-0-H-264-Si-GLA-mkv-snapshot-01-27-05-910.png"></a> <a href="https://ibb.co/h7ZF4Jt" target="_blank" class="externalLink" rel="nofollow"><img src="https://i.ibb.co/h7ZF4Jt/Black-and-White-1999-1080p-AMZN-WEB-DL-DDP2-0-H-264-Si-GLA-mkv-snapshot-01-25-53-806.png" class="bbCodeImage LbImage" alt="[​IMG]" data-url="https://i.ibb.co/h7ZF4Jt/Black-and-White-1999-1080p-AMZN-WEB-DL-DDP2-0-H-264-Si-GLA-mkv-snapshot-01-25-53-806.png"></a> <a href="https://ibb.co/Rp7HFZn" target="_blank" class="externalLink" rel="nofollow"><img src="https://i.ibb.co/Rp7HFZn/Black-and-White-1999-1080p-AMZN-WEB-DL-DDP2-0-H-264-Si-GLA-mkv-snapshot-01-19-36-772.png" class="bbCodeImage LbImage" alt="[​IMG]" data-url="https://i.ibb.co/Rp7HFZn/Black-and-White-1999-1080p-AMZN-WEB-DL-DDP2-0-H-264-Si-GLA-mkv-snapshot-01-19-36-772.png"></a> <a href="https://ibb.co/q5DB9yq" target="_blank" class="externalLink" rel="nofollow"><img src="https://i.ibb.co/q5DB9yq/Black-and-White-1999-1080p-AMZN-WEB-DL-DDP2-0-H-264-Si-GLA-mkv-snapshot-01-17-36-652.png" class="bbCodeImage LbImage" alt="[​IMG]" data-url="https://i.ibb.co/q5DB9yq/Black-and-White-1999-1080p-AMZN-WEB-DL-DDP2-0-H-264-Si-GLA-mkv-snapshot-01-17-36-652.png"></a> <a href="https://ibb.co/1KZn4dv" target="_blank" class="externalLink" rel="nofollow"><img src="https://i.ibb.co/1KZn4dv/Black-and-White-1999-1080p-AMZN-WEB-DL-DDP2-0-H-264-Si-GLA-mkv-snapshot-01-13-44-420.png" class="bbCodeImage LbImage" alt="[​IMG]" data-url="https://i.ibb.co/1KZn4dv/Black-and-White-1999-1080p-AMZN-WEB-DL-DDP2-0-H-264-Si-GLA-mkv-snapshot-01-13-44-420.png"></a> <a href="https://ibb.co/0CRmRyg" target="_blank" class="externalLink" rel="nofollow"><img src="https://i.ibb.co/0CRmRyg/Black-and-White-1999-1080p-AMZN-WEB-DL-DDP2-0-H-264-Si-GLA-mkv-snapshot-01-00-23-620.png" class="bbCodeImage LbImage" alt="[​IMG]" data-url="https://i.ibb.co/0CRmRyg/Black-and-White-1999-1080p-AMZN-WEB-DL-DDP2-0-H-264-Si-GLA-mkv-snapshot-01-00-23-620.png"></a> <a href="https://ibb.co/HNkm7bk" target="_blank" class="externalLink" rel="nofollow"><img src="https://i.ibb.co/HNkm7bk/Black-and-White-1999-1080p-AMZN-WEB-DL-DDP2-0-H-264-Si-GLA-mkv-snapshot-00-58-27-504.png" class="bbCodeImage LbImage" alt="[​IMG]" data-url="https://i.ibb.co/HNkm7bk/Black-and-White-1999-1080p-AMZN-WEB-DL-DDP2-0-H-264-Si-GLA-mkv-snapshot-00-58-27-504.png"></a> <a href="https://ibb.co/Zmj077p" target="_blank" class="externalLink" rel="nofollow"><img src="https://i.ibb.co/Zmj077p/Black-and-White-1999-1080p-AMZN-WEB-DL-DDP2-0-H-264-Si-GLA-mkv-snapshot-00-34-10-048.png" class="bbCodeImage LbImage" alt="[​IMG]" data-url="https://i.ibb.co/Zmj077p/Black-and-White-1999-1080p-AMZN-WEB-DL-DDP2-0-H-264-Si-GLA-mkv-snapshot-00-34-10-048.png"></a> <a href="https://ibb.co/4j2wQyc" target="_blank" class="externalLink" rel="nofollow"><img src="https://i.ibb.co/4j2wQyc/4.png" class="bbCodeImage LbImage" alt="[​IMG]" data-url="https://i.ibb.co/4j2wQyc/4.png"></a> <a href="https://ibb.co/LSL8Fv7" target="_blank" class="externalLink" rel="nofollow"><img src="https://i.ibb.co/LSL8Fv7/Black-and-White-1999-1080p-AMZN-WEB-DL-DDP2-0-H-264-Si-GLA-mkv-snapshot-00-25-13-391.png" class="bbCodeImage LbImage" alt="[​IMG]" data-url="https://i.ibb.co/LSL8Fv7/Black-and-White-1999-1080p-AMZN-WEB-DL-DDP2-0-H-264-Si-GLA-mkv-snapshot-00-25-13-391.png"></a> <a href="https://ibb.co/pnWRh73" target="_blank" class="externalLink" rel="nofollow"><img src="https://i.ibb.co/pnWRh73/Black-and-White-1999-1080p-AMZN-WEB-DL-DDP2-0-H-264-Si-GLA-mkv-snapshot-00-22-32-355.png" class="bbCodeImage LbImage" alt="[​IMG]" data-url="https://i.ibb.co/pnWRh73/Black-and-White-1999-1080p-AMZN-WEB-DL-DDP2-0-H-264-Si-GLA-mkv-snapshot-00-22-32-355.png"></a> <a href="https://ibb.co/TKMvrz9" target="_blank" class="externalLink" rel="nofollow"><img src="https://i.ibb.co/TKMvrz9/Black-and-White-1999-1080p-AMZN-WEB-DL-DDP2-0-H-264-Si-GLA-mkv-snapshot-00-08-48-528.png" class="bbCodeImage LbImage" alt="[​IMG]" data-url="https://i.ibb.co/TKMvrz9/Black-and-White-1999-1080p-AMZN-WEB-DL-DDP2-0-H-264-Si-GLA-mkv-snapshot-00-08-48-528.png"></a> <a href="https://ibb.co/cLCbsCw" target="_blank" class="externalLink" rel="nofollow"><img src="https://i.ibb.co/cLCbsCw/Black-and-White-1999-1080p-AMZN-WEB-DL-DDP2-0-H-264-Si-GLA-mkv-snapshot-00-04-42-282.png" class="bbCodeImage LbImage" alt="[​IMG]" data-url="https://i.ibb.co/cLCbsCw/Black-and-White-1999-1080p-AMZN-WEB-DL-DDP2-0-H-264-Si-GLA-mkv-snapshot-00-04-42-282.png"></a> <a href="https://ibb.co/KbgWd7y" target="_blank" class="externalLink" rel="nofollow"><img src="https://i.ibb.co/KbgWd7y/Black-and-White-1999-1080p-AMZN-WEB-DL-DDP2-0-H-264-Si-GLA-mkv-snapshot-00-03-29-627.png" class="bbCodeImage LbImage" alt="[​IMG]" data-url="https://i.ibb.co/KbgWd7y/Black-and-White-1999-1080p-AMZN-WEB-DL-DDP2-0-H-264-Si-GLA-mkv-snapshot-00-03-29-627.png"></a> <a href="https://ibb.co/RN7ZdGZ" target="_blank" class="externalLink" rel="nofollow"><img src="https://i.ibb.co/RN7ZdGZ/Black-and-White-1999-1080p-AMZN-WEB-DL-DDP2-0-H-264-Si-GLA-mkv-snapshot-00-01-43-385.png" class="bbCodeImage LbImage" alt="[​IMG]" data-url="https://i.ibb.co/RN7ZdGZ/Black-and-White-1999-1080p-AMZN-WEB-DL-DDP2-0-H-264-Si-GLA-mkv-snapshot-00-01-43-385.png"></a>​</div><br>
A group of white high school teens become involved with Harlem's black hip-hop crowd.<br>
<br>
<br>
<div style="text-align: center"><span data-s9e-mediaembed="youtube" style="display:inline-block;width:100%;max-width:640px"><span style="display:block;overflow:hidden;position:relative;padding-bottom:56.25%"><iframe allowfullscreen="" loading="lazy" scrolling="no" style="background:url(https://i.ytimg.com/vi/3gMcreK0l9o/hqdefault.jpg) 50% 50% / cover;border:0;height:100%;left:0;position:absolute;width:100%" src="https://www.youtube.com/embed/3gMcreK0l9o"></iframe></span></span>​</div><br>
<div style="text-align: left">
<div class="bbCodeBlock bbCodeCode">
<div class="type">Code:</div>
<pre>General
Unique ID                      : 116096875617394640530009936668997337158 (0x575771E64931296A85CBDB23D8DE4046)
Complete name                  : G:\Drives compartilhados\FileGuard - BACKUP C.A.A\rls_gringo\Black.and.White.1999.1080p.AMZN.WEB-DL.DDP2.0.H.264-SiGLA.mkv
Format                         : Matroska
Format version                 : Version 4
File size                      : 6.82 GiB
Duration                       : 1 h 39 min
Overall bit rate               : 9 839 kb/s
Frame rate                     : 29.970 FPS
Movie name                     : Black and White (1999)
Writing application            : mkvmerge v69.0.0 ('SiGLA') 64-bit
Writing library                : libebml v1.4.2 + libmatroska v1.6.4
IMDB                           : tt0165643
TMDB                           : movie/38809

Video
ID                             : 1
Format                         : AVC
Format/Info                    : Advanced Video Codec
Format profile                 : High@L4
Format settings                : CABAC / 4 Ref Frames
Format settings, CABAC         : Yes
Format settings, Reference fra : 4 frames
Codec ID                       : V_MPEG4/ISO/AVC
Duration                       : 1 h 39 min
Bit rate mode                  : Constant
Bit rate                       : 10 000 kb/s
Width                          : 1 920 pixels
Height                         : 1 080 pixels
Display aspect ratio           : 16:9
Frame rate mode                : Constant
Frame rate                     : 29.970 (30000/1001) FPS
Color space                    : YUV
Chroma subsampling             : 4:2:0
Bit depth                      : 8 bits
Scan type                      : Progressive
Bits/(Pixel*Frame)             : 0.161
Stream size                    : 6.66 GiB (98%)
Default                        : Yes
Forced                         : No
Color range                    : Limited
Color primaries                : BT.709
Transfer characteristics       : BT.709
Matrix coefficients            : BT.709

Audio
ID                             : 2
Format                         : E-AC-3
Format/Info                    : Enhanced AC-3
Commercial name                : Dolby Digital Plus
Codec ID                       : A_EAC3
Duration                       : 1 h 39 min
Bit rate mode                  : Constant
Bit rate                       : 224 kb/s
Channel(s)                     : 2 channels
Channel layout                 : L R
Sampling rate                  : 48.0 kHz
Frame rate                     : 31.250 FPS (1536 SPF)
Compression mode               : Lossy
Stream size                    : 159 MiB (2%)
Language                       : English (US)
Service kind                   : Complete Main
Default                        : Yes
Forced                         : No

Text #1
ID                             : 3
Format                         : UTF-8
Codec ID                       : S_TEXT/UTF8
Codec ID/Info                  : UTF-8 Plain Text
Duration                       : 1 h 33 min
Bit rate                       : 83 b/s
Frame rate                     : 0.298 FPS
Count of elements              : 1664
Stream size                    : 56.8 KiB (0%)
Title                          : Latin American
Language                       : Spanish (Latin America)
Default                        : No
Forced                         : No

Text #2
ID                             : 4
Format                         : UTF-8
Codec ID                       : S_TEXT/UTF8
Codec ID/Info                  : UTF-8 Plain Text
Duration                       : 1 h 33 min
Bit rate                       : 82 b/s
Frame rate                     : 0.241 FPS
Count of elements              : 1347
Stream size                    : 56.1 KiB (0%)
Title                          : Brazilian
Language                       : Portuguese (BR)
Default                        : No
Forced                         : No
</pre>
</div></div><br>
<div class="bbCodeBlock bbCodeVfcHH HiddenContent">
<div class="attribution type">Hidden Content:</div>
<blockquote>You must either reply or click 'Like' to see the hidden information contained here.</blockquote>
</div>
<div class="messageTextEndMarker">&nbsp;</div>
</blockquote>
</article>]]></description>
                <author><![CDATA[-C.A.A]]></author>
                </item>

                
                <item>
                <title><![CDATA[【Albums (lossless)】ALAC - Carly Rae Jepsen - Curiosity EP | CD Rip | + Digital Booklet | WEB ALAC | .M4A 16bits ／ 44.1kHz]]></title>
                <link><![CDATA[https://sharemania.us/threads/carly-rae-jepsen-curiosity-ep-cd-rip-digital-booklet-web-alac-m4a-16bits-%EF%BC%8F-44-1khz.243414/]]></link>
                <description><![CDATA[<article>
<blockquote class="messageText SelectQuoteContainer ugc baseHtml">
<div style="text-align: center"><img src="https://a5.mzstatic.com/us/r1000/0/Music124/v4/0b/08/6d/0b086d28-2afc-3fd1-f1d7-f949da973217/mzi.lktlmeaf.jpg" class="bbCodeImage LbImage" alt="[​IMG]" data-url="https://a5.mzstatic.com/us/r1000/0/Music124/v4/0b/08/6d/0b086d28-2afc-3fd1-f1d7-f949da973217/mzi.lktlmeaf.jpg" style=""> <br>
<br>
<span style="font-family: 'Book Antiqua'"><span style="font-size: 15px"><span style="color: #000000">
<div class="bbCodeBlock bbCodeVfcHH HiddenContent">
<div class="attribution type">Hidden Content:</div>
<blockquote>You must reply before you can see the hidden data contained here.</blockquote>
</div></span></span></span>​</div>
<div class="messageTextEndMarker">&nbsp;</div>
</blockquote>
</article>]]></description>
                <author><![CDATA[Nuric]]></author>
                </item>

                
                <item>
                <title><![CDATA[【Apple Music】WEB-RiP - Linkin Park - In the End [Apple Music WEB-DL 1080p HD]]]></title>
                <link><![CDATA[https://sharemania.us/threads/linkin-park-in-the-end-apple-music-web-dl-1080p-hd.243418/]]></link>
                <description><![CDATA[<article>
<blockquote class="messageText SelectQuoteContainer ugc baseHtml">
<span style="font-size: 22px"><b>Linkin Park - In the End [Apple Music WEB-DL 1080p HD]</b></span><br>
<br>
<img src="https://imgur.com/wGKP1TK.jpg" class="bbCodeImage LbImage" alt="[​IMG]" data-url="https://imgur.com/wGKP1TK.jpg" style=""><br>
<br>
<div class="bbCodeBlock bbCodeCode">
<div class="type">Code:</div>
<pre>General
Format                         : MPEG-4
Codec ID                       : M4V  (isom/iso4/M4V /mp42)
File size                      : 266 MiB
Duration                       : 3 min 38 s
Overall bit rate mode          : Variable
Overall bit rate               : 10.2 Mb/s
Movie name                     : In the End
Performer                      : LINKIN PARK
Genre                          : Alternative
ContentType                    : Music Video
Recorded date                  : UTC 2001-09-24 07:00:00
Encoded date                   : UTC 2024-02-24 10:35:22
Tagged date                    : UTC 2024-02-24 10:35:22
Copyright                      : ℗ 2020 Warner Records Inc.
Cover                          : Yes
Rating                         : None
GenreID                        : 1620
AlbumTitleID                   : 148662
AppleStoreCatalogID            : 1537681777

Video
ID                             : 2
Format                         : AVC
Format/Info                    : Advanced Video Codec
Format profile                 : High@L4
Format settings                : CABAC / 4 Ref Frames
Format settings, CABAC         : Yes
Format settings, Reference fra : 4 frames
Codec ID                       : avc1
Codec ID/Info                  : Advanced Video Coding
Duration                       : 3 min 38 s
Bit rate                       : 9 920 kb/s
Maximum bit rate               : 20.5 Mb/s
Width                          : 1 920 pixels
Height                         : 1 068 pixels
Display aspect ratio           : 16:9
Frame rate mode                : Constant
Frame rate                     : 23.976 (24000/1001) FPS
Color space                    : YUV
Chroma subsampling             : 4:2:0
Bit depth                      : 8 bits
Scan type                      : Progressive
Bits/(Pixel*Frame)             : 0.202
Stream size                    : 258 MiB (97%)
Title                          : Core Media Video
Encoded date                   : UTC 2024-02-24 10:35:28
Tagged date                    : UTC 2024-04-30 09:53:09
Color range                    : Limited
Color primaries                : BT.709
Transfer characteristics       : BT.709
Matrix coefficients            : BT.709
Codec configuration box        : avcC

Audio
ID                             : 1
Format                         : AAC LC
Format/Info                    : Advanced Audio Codec Low Complexity
Codec ID                       : mp4a-40-2
Duration                       : 3 min 38 s
Duration_LastFrame             : -3 ms
Bit rate mode                  : Variable
Bit rate                       : 272 kb/s
Maximum bit rate               : 326 kb/s
Channel(s)                     : 2 channels
Channel layout                 : L R
Sampling rate                  : 48.0 kHz
Frame rate                     : 46.875 FPS (1024 SPF)
Compression mode               : Lossy
Stream size                    : 7.08 MiB (3%)
Title                          : Core Media Audio
Encoded date                   : UTC 2024-02-24 10:35:22
Tagged date                    : UTC 2024-04-30 09:53:09
</pre>
</div>
<div class="bbCodeBlock bbCodeVfcHH HiddenContent">
<div class="attribution type">Hidden Content:</div>
<blockquote>You must reply before you can see the hidden data contained here.</blockquote>
</div>
<div class="messageTextEndMarker">&nbsp;</div>
</blockquote>
</article>]]></description>
                <author><![CDATA[Ron001]]></author>
                </item>

                </channel></rss>